HIERARCHY
ROOT Hips
{
	OFFSET -0.001795 -0.223333 0.028219
	CHANNELS 6 Xposition Yposition Zposition Zrotation Yrotation Xrotation 
	JOINT LeftUpLeg
	{
		OFFSET 0.069520 -0.091406 -0.006815
		CHANNELS 3 Zrotation Yrotation Xrotation
		JOINT LeftLeg
		{
			OFFSET 0.034277 -0.375199 -0.004496
			CHANNELS 3 Zrotation Yrotation Xrotation
			JOINT LeftFoot
			{
				OFFSET -0.013596 -0.397961 -0.043693
				CHANNELS 3 Zrotation Yrotation Xrotation
				JOINT LeftToe
				{
					OFFSET 0.026358 -0.055791 0.119288
					CHANNELS 3 Zrotation Yrotation Xrotation
					End Site
					{
						OFFSET 0.000000 0.000000 0.000000
					}
				}
			}
		}
	}
	JOINT RightUpLeg
	{
		OFFSET -0.067670 -0.090522 -0.004320
		CHANNELS 3 Zrotation Yrotation Xrotation
		JOINT RightLeg
		{
			OFFSET -0.038290 -0.382569 -0.008850
			CHANNELS 3 Zrotation Yrotation Xrotation
			JOINT RightFoot
			{
				OFFSET 0.015774 -0.398415 -0.042312
				CHANNELS 3 Zrotation Yrotation Xrotation
				JOINT RightToe
				{
					OFFSET -0.025372 -0.048144 0.123348
					CHANNELS 3 Zrotation Yrotation Xrotation
					End Site
					{
						OFFSET 0.000000 0.000000 0.000000
					}
				}
			}
		}
	}
	JOINT Spine
	{
		OFFSET -0.002533 0.108963 -0.026696
		CHANNELS 3 Zrotation Yrotation Xrotation
		JOINT Spine1
		{
			OFFSET 0.005487 0.135180 0.001092
			CHANNELS 3 Zrotation Yrotation Xrotation
			JOINT Spine2
			{
				OFFSET 0.001457 0.052922 0.025425
				CHANNELS 3 Zrotation Yrotation Xrotation
				JOINT Neck
				{
					OFFSET -0.002778 0.213870 -0.042857
					CHANNELS 3 Zrotation Yrotation Xrotation
					JOINT Head
					{
						OFFSET 0.005152 0.064970 0.051349
						CHANNELS 3 Zrotation Yrotation Xrotation
						End Site
						{
							OFFSET 0.000000 0.000000 0.000000
						}
					}
				}
				JOINT LeftShoulder
				{
					OFFSET 0.078845 0.121749 -0.034090
					CHANNELS 3 Zrotation Yrotation Xrotation
					JOINT LeftArm
					{
						OFFSET 0.090977 0.030469 -0.008868
						CHANNELS 3 Zrotation Yrotation Xrotation
						JOINT LeftForeArm
						{
							OFFSET 0.259612 -0.012772 -0.027456
							CHANNELS 3 Zrotation Yrotation Xrotation
							JOINT LeftHand
							{
								OFFSET 0.249234 0.008986 -0.001171
								CHANNELS 3 Zrotation Yrotation Xrotation
								End Site
								{
									OFFSET 0.000000 0.000000 0.000000
								}
							}
						}
					}
				}
				JOINT RightShoulder
				{
					OFFSET -0.081759 0.118833 -0.038615
					CHANNELS 3 Zrotation Yrotation Xrotation
					JOINT RightArm
					{
						OFFSET -0.096012 0.032551 -0.009143
						CHANNELS 3 Zrotation Yrotation Xrotation
						JOINT RightForeArm
						{
							OFFSET -0.253742 -0.013329 -0.021401
							CHANNELS 3 Zrotation Yrotation Xrotation
							JOINT RightHand
							{
								OFFSET -0.255298 0.007772 -0.005559
								CHANNELS 3 Zrotation Yrotation Xrotation
								End Site
								{
									OFFSET 0.000000 0.000000 0.000000
								}
							}
						}
					}
				}
			}
		}
	}
}
MOTION
Frames: 7
Frame Time: 0.050000
0.104771 0.761755 -1.813555 -7.281320 35.987519 -9.139953 11.077393 -4.221544 -34.591676 -29.372004 3.973874 59.435156 16.624188 39.716561 -21.305213 0.000000 0.000000 0.000000 -12.775993 -8.804239 -41.742433 5.480314 -6.660348 39.411837 -8.606295 -16.644989 15.125145 0.000000 0.000000 0.000000 -15.575252 -5.967920 59.921365 -5.622262 2.739803 0.294106 1.591968 29.388046 5.694068 18.231776 -8.411791 -13.890078 0.000000 0.000000 0.000000 -25.165591 -39.102492 7.558434 -36.890664 -29.983266 7.952181 82.600594 -75.390240 -78.105876 0.000000 0.000000 0.000000 16.095892 17.776601 15.808369 24.625343 40.453203 4.310845 -102.076822 21.296632 -11.118634 0.000000 0.000000 0.000000 
0.104260 0.762864 -1.803398 -6.640341 35.478205 -9.075783 10.874695 -3.884431 -33.110061 -28.893554 3.765315 59.140099 16.637591 39.616190 -22.025144 0.000000 0.000000 0.000000 -12.206183 -8.236649 -41.460403 4.435668 -6.217839 40.213462 -8.461631 -16.661678 13.243374 0.000000 0.000000 0.000000 -14.537822 -6.147923 59.172749 -5.996312 2.905708 0.430949 1.718106 27.566141 6.458557 17.527306 -7.538338 -14.878861 0.000000 0.000000 0.000000 -24.570894 -38.076995 7.575899 -38.101593 -30.396920 8.034794 79.694656 -74.998326 -74.667354 0.000000 0.000000 0.000000 16.715234 18.900770 16.370728 27.253846 41.735938 5.315975 -101.925572 21.906412 -12.034227 0.000000 0.000000 0.000000 
0.103817 0.764937 -1.790406 -5.851419 34.701691 -8.984132 10.427755 -3.524769 -31.381405 -27.921816 3.395422 59.022355 16.834580 39.606903 -22.086037 0.000000 0.000000 0.000000 -11.497494 -7.686786 -41.703256 3.133907 -5.775836 42.159179 -8.017623 -16.214503 11.662967 0.000000 0.000000 0.000000 -13.854411 -6.194815 59.109508 -5.877641 2.841686 0.786713 1.643078 26.565446 6.334666 17.163398 -6.923526 -15.884362 0.000000 0.000000 0.000000 -25.560496 -38.038749 7.994606 -37.792060 -29.629183 7.811569 79.148834 -75.013757 -73.416383 0.000000 0.000000 0.000000 16.947996 19.538055 16.571457 30.780696 41.985047 6.479150 -102.484716 24.758634 -15.458398 0.000000 0.000000 0.000000 
0.103251 0.768144 -1.774791 -4.986352 34.348559 -8.782617 9.459236 -3.188561 -28.998263 -26.045097 2.315881 58.359408 16.827814 39.123945 -23.550727 0.000000 0.000000 0.000000 -11.009677 -7.233872 -41.404982 1.986409 -5.406002 43.609662 -7.789195 -16.094105 9.716740 0.000000 0.000000 0.000000 -12.098962 -6.881903 58.823046 -5.717049 2.752495 0.948840 0.797368 24.000364 6.566873 15.608645 -5.910389 -16.045415 0.000000 0.000000 0.000000 -25.543231 -37.703263 8.716478 -37.554379 -29.601828 7.542361 79.160075 -74.679404 -72.263113 0.000000 0.000000 0.000000 17.671540 20.751730 17.059085 35.111996 41.476039 7.591289 -104.431014 28.643974 -20.995553 0.000000 0.000000 0.000000 
0.102019 0.770649 -1.755655 -3.968361 33.003366 -8.392751 8.919575 -2.630317 -25.993268 -24.168406 1.676528 56.959319 16.854872 38.991868 -25.591832 0.000000 0.000000 0.000000 -10.921759 -6.809617 -41.380378 2.217311 -5.627571 45.265274 -7.401145 -15.809132 7.227988 0.000000 0.000000 0.000000 -11.135798 -6.919400 58.867158 -5.801127 2.758047 1.881965 0.435469 21.899478 6.414859 14.470032 -5.036767 -16.843006 0.000000 0.000000 0.000000 -25.713907 -37.829565 9.890357 -35.365676 -30.467086 7.107569 81.807206 -72.561766 -71.373075 0.000000 0.000000 0.000000 18.126580 21.719726 17.232062 38.220598 40.765130 8.278579 -105.925921 32.795333 -27.079333 0.000000 0.000000 0.000000 
0.099074 0.773830 -1.732185 -3.258277 32.608819 -8.157954 8.681286 -2.069757 -22.292784 -21.823105 0.560847 54.650622 16.655738 37.763005 -28.870873 0.000000 0.000000 0.000000 -10.649788 -6.355037 -40.588494 2.236852 -5.940580 46.534901 -7.413334 -16.249777 3.997249 0.000000 0.000000 0.000000 -9.759919 -7.515461 58.881557 -4.940383 2.288273 2.757827 -1.028730 19.123483 6.627009 13.630338 -4.068201 -18.868736 0.000000 0.000000 0.000000 -24.433409 -37.725673 10.822892 -33.692321 -31.204563 6.575470 84.752120 -69.616625 -70.414546 0.000000 0.000000 0.000000 18.344517 23.458751 17.710357 42.467371 40.137371 9.402419 -107.362695 35.909168 -32.071480 0.000000 0.000000 0.000000 
0.093940 0.776101 -1.703295 -2.526351 31.276962 -8.187596 9.316883 -1.524650 -18.773143 -20.334623 0.283231 53.137013 16.840013 37.309977 -29.097849 0.000000 0.000000 0.000000 -10.166671 -5.746855 -40.483229 2.605502 -6.570962 49.480202 -7.102176 -16.061379 1.073930 0.000000 0.000000 0.000000 -8.632672 -7.781027 59.291789 -4.921539 2.280587 3.059351 -1.622521 17.287854 7.847673 13.194602 -3.408437 -20.981587 0.000000 0.000000 0.000000 -22.397758 -37.194508 11.155186 -33.804443 -32.308903 6.442983 87.718254 -66.681418 -70.007950 0.000000 0.000000 0.000000 16.925225 23.538309 16.603885 47.176317 39.205615 10.720208 -108.172109 39.025317 -36.286759 0.000000 0.000000 0.000000 
